<svg xmlns="http://www.w3.org/2000/svg" width="146.999" height="30.093" viewBox="0 0 146.999 30.093"><g transform="translate(-318 -16.953)"><g transform="translate(367 22)"><path d="M123.907,23.8a9.451,9.451,0,0,1,2.115-10.59,9.6,9.6,0,0,1,3.192-2.025,10.844,10.844,0,0,1,3.987-.718,10.471,10.471,0,0,1,4.628,1.013,9.863,9.863,0,0,1,3.149,2.353.429.429,0,0,1-.036.6L138.5,16.621a.425.425,0,0,1-.627-.064,4.989,4.989,0,0,0-1.655-1.451,5.676,5.676,0,0,0-2.808-.692,5.832,5.832,0,0,0-2.9.718A5.229,5.229,0,0,0,128.5,17.12a5.728,5.728,0,0,0-.731,2.91,5.727,5.727,0,0,0,.731,2.91,5.2,5.2,0,0,0,2.026,1.987,5.95,5.95,0,0,0,2.936.718,5.55,5.55,0,0,0,2.769-.692,5.1,5.1,0,0,0,1.667-1.477.424.424,0,0,1,.627-.063l2.45,2.189a.429.429,0,0,1,.038.6,9.712,9.712,0,0,1-3.154,2.379,10.531,10.531,0,0,1-4.654,1.013,10.84,10.84,0,0,1-3.987-.718,9.591,9.591,0,0,1-3.192-2.025,9.358,9.358,0,0,1-2.115-3.051" transform="translate(-123.151 -9.594)" fill="#333"/><path d="M214.632,6.562h3.274a.427.427,0,0,1,.427.427v6.15a.428.428,0,0,0,.713.318,4.531,4.531,0,0,1,3.057-1.1,4.477,4.477,0,0,1,3.449,1.4,5.537,5.537,0,0,1,1.295,3.91v8.06a.427.427,0,0,1-.427.427h-3.274a.427.427,0,0,1-.427-.427V18.2a2.71,2.71,0,0,0-.5-1.731,1.772,1.772,0,0,0-1.474-.628,2.282,2.282,0,0,0-1.705.731,2.812,2.812,0,0,0-.705,2.039v7.111a.427.427,0,0,1-.427.427h-3.274a.427.427,0,0,1-.427-.427V6.989a.427.427,0,0,1,.427-.427" transform="translate(-193.878 -6.562)" fill="#333"/><path d="M283.964,43.238a6.862,6.862,0,0,1-.974-3.615,6.958,6.958,0,0,1,3.577-6.167,7.443,7.443,0,0,1,3.731-.936,7.117,7.117,0,0,1,3.641.923,6.746,6.746,0,0,1,2.5,2.5,6.976,6.976,0,0,1,.91,3.551.949.949,0,0,1-.949.949h-8.648a.429.429,0,0,0-.4.591,3.484,3.484,0,0,0,1.146,1.524,3.839,3.839,0,0,0,2.385.756,3.933,3.933,0,0,0,1.936-.461,3.456,3.456,0,0,0,1.066-.908.426.426,0,0,1,.616-.059l2.084,1.814a.427.427,0,0,1,.034.613,7.35,7.35,0,0,1-2.39,1.668,8.748,8.748,0,0,1-3.628.744,8.12,8.12,0,0,1-3.949-.936,6.967,6.967,0,0,1-2.692-2.551m4.006-5.487h4.478a.428.428,0,0,0,.386-.613,2.548,2.548,0,0,0-.831-.99,3.1,3.1,0,0,0-4.4.948.429.429,0,0,0,.363.654" transform="translate(-247.309 -26.725)" fill="#333"/><path d="M359.572,43.238a6.861,6.861,0,0,1-.974-3.615,6.958,6.958,0,0,1,3.577-6.167,7.443,7.443,0,0,1,3.731-.936,7.117,7.117,0,0,1,3.641.923,6.746,6.746,0,0,1,2.5,2.5,6.976,6.976,0,0,1,.91,3.551.949.949,0,0,1-.949.949h-8.648a.429.429,0,0,0-.4.591,3.485,3.485,0,0,0,1.146,1.524,3.839,3.839,0,0,0,2.385.756,3.933,3.933,0,0,0,1.936-.461,3.456,3.456,0,0,0,1.066-.908.426.426,0,0,1,.616-.059L372.2,43.7a.427.427,0,0,1,.034.613,7.351,7.351,0,0,1-2.389,1.668,8.75,8.75,0,0,1-3.628.744,8.121,8.121,0,0,1-3.949-.936,6.967,6.967,0,0,1-2.692-2.551m4.006-5.487h4.478a.428.428,0,0,0,.386-.613,2.548,2.548,0,0,0-.831-.99,3.1,3.1,0,0,0-4.4.948.429.429,0,0,0,.363.654" transform="translate(-306.038 -26.725)" fill="#333"/><path d="M439.89,37.615h-4.265a.427.427,0,0,1-.427-.427v-2.4a.427.427,0,0,1,.427-.427h10.043a.427.427,0,0,1,.427.427v1.842a.427.427,0,0,1-.083.254l-5.107,6.924a.427.427,0,0,0,.344.681h4.65a.427.427,0,0,1,.427.427v2.4a.427.427,0,0,1-.427.427H435.472a.427.427,0,0,1-.427-.427V45.473a.427.427,0,0,1,.083-.254l5.107-6.924a.427.427,0,0,0-.344-.681" transform="translate(-365.419 -28.153)" fill="#333"/><path d="M498.8,43.238a6.862,6.862,0,0,1-.974-3.615,6.932,6.932,0,0,1,.961-3.615,7,7,0,0,1,2.615-2.551,7.443,7.443,0,0,1,3.731-.936,7.117,7.117,0,0,1,3.641.923,6.746,6.746,0,0,1,2.5,2.5,6.975,6.975,0,0,1,.91,3.551.949.949,0,0,1-.949.949h-8.648a.429.429,0,0,0-.4.591,3.482,3.482,0,0,0,1.146,1.524,3.839,3.839,0,0,0,2.385.756,3.933,3.933,0,0,0,1.936-.461,3.457,3.457,0,0,0,1.066-.908.426.426,0,0,1,.616-.059l2.084,1.814a.428.428,0,0,1,.034.614,7.351,7.351,0,0,1-2.389,1.668,8.749,8.749,0,0,1-3.628.744,8.122,8.122,0,0,1-3.949-.936,6.967,6.967,0,0,1-2.692-2.551m4.006-5.487h4.478a.428.428,0,0,0,.386-.613,2.549,2.549,0,0,0-.831-.99,3.1,3.1,0,0,0-4.4.948.429.429,0,0,0,.363.654" transform="translate(-414.188 -26.725)" fill="#333"/></g><path d="M2.367,24a2.384,2.384,0,0,0,.679-.1l16.338-4.847a2.372,2.372,0,1,1,2.241-.665l13.869-4.115a2.371,2.371,0,0,0,0-4.546l-7.9-2.344a2.371,2.371,0,1,1-2.941-.873L3.046.1A2.367,2.367,0,0,0,0,2.373V21.627A2.373,2.373,0,0,0,2.367,24Zm3.087-8.68a1.66,1.66,0,1,1-1.66,1.66A1.662,1.662,0,0,1,5.454,15.32ZM9.484,5.835A2.371,2.371,0,1,1,7.114,8.206,2.374,2.374,0,0,1,9.484,5.835Z" transform="matrix(0.985, -0.174, 0.174, 0.985, 318, 23.411)" fill="#ffe036"/></g></svg>