<svg xmlns="http://www.w3.org/2000/svg" width="40" height="40" viewBox="0 0 40 40"><g transform="translate(-605 -548)"><rect width="40" height="40" rx="8" transform="translate(605 548)" fill="rgba(216,235,255,0)"/><path d="M3.6,4.55H5.2v-1a.8.8,0,1,1,1.6,0v1h6.4v-1a.8.8,0,1,1,1.6,0v1h1.6A1.6,1.6,0,0,1,18,6.15v9.6a1.6,1.6,0,0,1-1.6,1.6H3.6A1.6,1.6,0,0,1,2,15.75V6.15A1.6,1.6,0,0,1,3.6,4.55Zm0,11.2V9.35H16.4v6.4Zm12.8-9.6v1.6H3.6V6.15Z" transform="translate(615 557.95)" fill="#555" fill-rule="evenodd"/></g></svg>