<svg xmlns="http://www.w3.org/2000/svg" width="24" height="24" viewBox="0 0 24 24"><g transform="translate(-2 -2)"><path d="M11.779,14.808a.553.553,0,0,1-.572-.6,2.981,2.981,0,0,1,.114-.488l0-.013.028-.1a2.422,2.422,0,0,1,.518-.966,3.968,3.968,0,0,1,.817-.667,5.429,5.429,0,0,0,.639-.477,2.067,2.067,0,0,0,.449-.546,1.391,1.391,0,0,0,.167-.679,1.249,1.249,0,0,0-.7-1.156,1.524,1.524,0,0,0-.7-.161,1.561,1.561,0,0,0-.708.167,1.351,1.351,0,0,0-.547.483,1.223,1.223,0,0,0-.118.224.8.8,0,0,1-.69.565H9.323a.544.544,0,0,1-.56-.612,3.056,3.056,0,0,1,.5-1.286,3.163,3.163,0,0,1,1.386-1.122A4.739,4.739,0,0,1,12.551,7a5.072,5.072,0,0,1,2.025.38,3.14,3.14,0,0,1,1.381,1.087,2.919,2.919,0,0,1,.5,1.72,3.013,3.013,0,0,1-.224,1.2,2.914,2.914,0,0,1-.616.921,4.766,4.766,0,0,1-.938.719,3.806,3.806,0,0,0-.748.564,1.915,1.915,0,0,0-.432.679l-.02.059a.678.678,0,0,1-.625.486Z" transform="translate(1.351 1)" fill="#0095d9"/><path d="M11.952,17.533a1.35,1.35,0,0,1-.984-.4,1.323,1.323,0,0,1-.4-.978,1.3,1.3,0,0,1,.4-.966,1.35,1.35,0,0,1,.984-.4,1.337,1.337,0,0,1,.961.4,1.32,1.32,0,0,1,.42.966,1.338,1.338,0,0,1-.2.7,1.487,1.487,0,0,1-.5.5A1.307,1.307,0,0,1,11.952,17.533Z" transform="translate(1.714 2.557)" fill="#0095d9"/><path d="M26,14A12,12,0,1,1,14,2,12,12,0,0,1,26,14Zm-2.4,0A9.6,9.6,0,1,1,14,4.4,9.6,9.6,0,0,1,23.6,14Z" fill="#0095d9" fill-rule="evenodd"/></g></svg>